{"title":"Doctor Who 2005 S08E06 The Caretaker 720p HDTV x265","uid":11130269,"size":426818224,"categoryP":"video","categoryS":"hd___tv_shows","magnet":"?xt=urn:btih:903eacaa9d09e3d30246c2d66065ee685900d65d&amp;dn=Doctor+Who+2005+S08E06+The+Caretaker+720p+HDTV+x265&amp;tr=udp%3A%2F%2Ftracker.openbittorrent.com%3A80&amp;tr=udp%3A%2F%2Fopen.demonii.com%3A1337&amp;tr=udp%3A%2F%2Ftracker.coppersurfer.tk%3A6969&amp;tr=udp%3A%2F%2Fexodus.desync.com%3A6969","seeders":0,"leechers":0,"uploader":"atm50","files":-1,"time":1412034444,"description":"The terrifying Skovox Blitzer is ready to destroy all humanity - but worse, and any second now, Danny Pink and the Doctor are going to meet.\n\nSource: Doctor Who 2005 S08E06 720p HDTV x264-TLA [eztv]\n\nFormat                         : MPEG-4\nFile size                      : 407 MiB\nDuration                       : 45mn 11s\nOverall bit rate               : 1 259 Kbps\n\nVideo\n\nFormat                         : HEVC [X265]\nBit rate                       : 1 000 Kbps\nMaximum bit rate               : 8 342 Kbps\nWidth                          : 1 280 pixels\nHeight                         : 720 pixels\nDisplay aspect ratio           : 16:9\nFrame rate                     : 25.000 fps\nStream size                    : 323 MiB (79%)\n\nAudio\n\nFormat                         : AC-3\nBit rate                       : 256 Kbps\nChannel(s)                     : 6 channels (5.1)\nSampling rate                  : 48.0 KHz\nBit depth                      : 16 bits\nCompression mode               : Lossy\nStream size                    : 82.8 MiB (20%)\n\nSubtitles: English (External)","torrent":{"xt":"urn:btih:903eacaa9d09e3d30246c2d66065ee685900d65d","amp;dn":"Doctor+Who+2005+S08E06+The+Caretaker+720p+HDTV+x265","amp;tr":["udp%3A%2F%2Ftracker.openbittorrent.com%3A80","udp%3A%2F%2Fopen.demonii.com%3A1337","udp%3A%2F%2Ftracker.coppersurfer.tk%3A6969","udp%3A%2F%2Fexodus.desync.com%3A6969"],"infoHash":"903eacaa9d09e3d30246c2d66065ee685900d65d","infoHashBuffer":{"type":"Buffer","data":[144,62,172,170,157,9,227,211,2,70,194,214,96,101,238,104,89,0,214,93]},"announce":[],"urlList":[]}}